<svg t="1516862074453" class="icon" viewBox="0 0 1024 1024" version="1.1" xmlns="http://www.w3.org/2000/svg" p-id="1743" height="200" width="200"><path d="M419.84 563.2h-202.752l-67.584 133.12c-6.144 10.24-18.432 14.336-26.624 8.192-10.24-6.144-14.336-18.432-8.192-26.624l180.224-356.352c12.288-24.576 43.008-24.576 55.296 0l169.984 356.352c4.096 10.24 0 22.528-10.24 26.624-10.24 4.096-22.528 0-26.624-10.24l-63.488-131.072z m-18.432-40.96l-77.824-163.84-83.968 163.84h161.792z m161.792 114.688l268.288-278.528H583.68c-12.288 0-20.48-8.192-20.48-20.48s8.192-20.48 20.48-20.48h276.48c28.672 0 40.96 28.672 20.48 49.152l-268.288 278.528h268.288c12.288 0 20.48 8.192 20.48 20.48s-8.192 20.48-20.48 20.48H583.68c-28.672 0-40.96-28.672-20.48-49.152z m-40.96-534.528l102.4 122.88h-204.8l102.4-122.88z m0 819.2l-102.4-122.88h204.8l-102.4 122.88z" p-id="1744" fill="#8a8a8a"></path></svg>